<svg width="24" height="28" viewBox="0 0 24 28" fill="none" xmlns="http://www.w3.org/2000/svg">
<path d="M5.31856 13.3333H15.9557V16H5.31856V13.3333ZM7.97784 24H2.65928V2.66667H11.9668V9.33333H18.615V13.4667L21.2742 10.8V8L13.2964 0H2.65928C1.95399 0 1.2776 0.280951 0.778885 0.781048C0.280173 1.28115 0 1.95942 0 2.66667V24C0 24.7072 0.280173 25.3855 0.778885 25.8856C1.2776 26.3857 1.95399 26.6667 2.65928 26.6667H7.97784V24ZM5.31856 21.3333H10.7701L11.9668 20.1333V18.6667H5.31856V21.3333ZM21.5402 14.6667C21.6731 14.6667 21.9391 14.8 22.072 14.9333L23.8006 16.6667C24.0665 16.9333 24.0665 17.4667 23.8006 17.7333L22.4709 19.0667L19.6787 16.2667L21.0083 14.9333C21.1413 14.8 21.2742 14.6667 21.5402 14.6667ZM21.5402 19.8667L13.4294 28H10.6371V25.2L18.7479 17.0667L21.5402 19.8667Z" fill="black"/>
</svg>
